<svg width="116" height="30" viewBox="0 0 116 30" fill="none" xmlns="http://www.w3.org/2000/svg">
<path d="M109.162 29.072C108.202 29.264 107.05 29.36 105.706 29.36C104.122 29.36 102.694 28.952 101.422 28.136C100.174 27.296 99.1902 26.168 98.4702 24.752C97.7742 23.336 97.4262 21.776 97.4262 20.072C97.4262 18.224 97.9902 16.496 99.1182 14.888C100.246 13.256 101.65 11.96 103.33 11C105.034 10.016 106.678 9.52399 108.262 9.52399C110.542 9.52399 112.306 10.424 113.554 12.224C114.826 14.024 115.462 16.4 115.462 19.352H102.142C102.286 21.392 102.838 23.06 103.798 24.356C104.782 25.652 106.114 26.3 107.794 26.3C109.354 26.3 111.574 25.088 114.454 22.664L115.534 24.032L109.162 29.072ZM106.174 12.548C103.582 12.548 102.226 14.324 102.106 17.876H110.53C110.314 16.58 110.086 15.596 109.846 14.924C109.63 14.228 109.234 13.664 108.658 13.232C108.106 12.776 107.278 12.548 106.174 12.548Z" fill="#EF1515"/>
<path d="M93.32 29H86.48V16.868C86.48 15.548 86.276 14.624 85.868 14.096C85.46 13.568 84.728 13.304 83.672 13.304C82.928 13.304 82.196 13.448 81.476 13.736C80.756 14 79.904 14.54 78.92 15.356V26.3L82.16 27.56L81.44 29H74.6V16.868C74.6 15.548 74.396 14.624 73.988 14.096C73.58 13.568 72.848 13.304 71.792 13.304C71.048 13.304 70.316 13.448 69.596 13.736C68.876 14 68.024 14.54 67.04 15.356V26.3L70.28 27.56L69.56 29H59.516V27.884L62.72 25.364V15.176L59.516 13.304V12.188L65.672 9.164L66.824 13.772L71.612 9.776C72.116 9.584 72.776 9.488 73.592 9.488C74.984 9.488 76.136 9.872 77.048 10.64C77.96 11.384 78.536 12.416 78.776 13.736L83.456 9.812C83.96 9.62 84.62 9.524 85.436 9.524C87.068 9.524 88.364 10.028 89.324 11.036C90.284 12.02 90.764 13.364 90.764 15.068V26.3L94.04 27.56L93.32 29Z" fill="#EF1515"/>
<path d="M46.7037 9.52399C48.2877 9.52399 49.7037 9.94399 50.9517 10.784C52.2237 11.6 53.2077 12.716 53.9037 14.132C54.6237 15.548 54.9837 17.108 54.9837 18.812C54.9837 20.66 54.4197 22.4 53.2917 24.032C52.1637 25.64 50.7477 26.936 49.0437 27.92C47.3637 28.88 45.7317 29.36 44.1477 29.36C42.5637 29.36 41.1357 28.952 39.8637 28.136C38.6157 27.296 37.6317 26.168 36.9117 24.752C36.2157 23.336 35.8677 21.776 35.8677 20.072C35.8677 18.224 36.4317 16.496 37.5597 14.888C38.6877 13.256 40.0917 11.96 41.7717 11C43.4757 10.016 45.1197 9.52399 46.7037 9.52399ZM44.6157 12.548C41.9037 12.548 40.5477 14.48 40.5477 18.344C40.5477 20.624 41.0397 22.532 42.0237 24.068C43.0077 25.58 44.4117 26.336 46.2357 26.336C48.9477 26.336 50.3037 24.392 50.3037 20.504C50.3037 18.248 49.8117 16.364 48.8277 14.852C47.8437 13.316 46.4397 12.548 44.6157 12.548Z" fill="#EF1515"/>
<path d="M30.824 29H19.88V27.884L23.264 25.22V15.716H9.044V26.264L12.824 27.56L12.104 29H1.16V27.884L4.544 25.22V3.40398L0.800003 2.14398L1.52 0.703979H12.464V1.81998L9.044 4.48398V14.096H23.264V3.40398L19.52 2.14398L20.24 0.703979H31.184V1.81998L27.764 4.48398V26.264L31.544 27.56L30.824 29Z" fill="#EF1515"/>
</svg>
